<svg width="78" height="18" viewBox="0 0 78 18" fill="none" xmlns="http://www.w3.org/2000/svg">
<path d="M0.864 0.0079999C1.264 0.0239997 1.776 0.0399995 2.4 0.0559993C3.024 0.0719991 3.648 0.079999 4.272 0.079999C5.056 0.079999 5.8 0.0719991 6.504 0.0559993C7.208 0.0399995 7.704 0.0319996 7.992 0.0319996C9.88 0.0319996 11.288 0.383999 12.216 1.088C13.16 1.792 13.632 2.696 13.632 3.8C13.632 4.36 13.48 4.92 13.176 5.48C12.888 6.04 12.416 6.544 11.76 6.992C11.12 7.44 10.28 7.776 9.24 8V8.048C10.648 8.176 11.76 8.464 12.576 8.912C13.408 9.344 14 9.864 14.352 10.472C14.704 11.064 14.88 11.688 14.88 12.344C14.88 13.32 14.624 14.16 14.112 14.864C13.616 15.552 12.896 16.08 11.952 16.448C11.008 16.816 9.872 17 8.544 17C8.192 17 7.656 16.992 6.936 16.976C6.216 16.944 5.344 16.928 4.32 16.928C3.664 16.928 3.024 16.936 2.4 16.952C1.776 16.952 1.264 16.968 0.864 17V16.52C1.392 16.488 1.784 16.424 2.04 16.328C2.312 16.232 2.488 16.04 2.568 15.752C2.664 15.464 2.712 15.032 2.712 14.456V2.552C2.712 1.96 2.664 1.528 2.568 1.256C2.488 0.967999 2.312 0.776 2.04 0.68C1.784 0.567999 1.392 0.503999 0.864 0.487999V0.0079999ZM7.584 0.487999C6.928 0.487999 6.496 0.624 6.288 0.896C6.096 1.168 6 1.72 6 2.552V14.456C6 15.016 6.048 15.44 6.144 15.728C6.24 16.016 6.408 16.208 6.648 16.304C6.888 16.4 7.24 16.448 7.704 16.448C9.016 16.448 9.96 16.088 10.536 15.368C11.128 14.632 11.424 13.592 11.424 12.248C11.424 11.016 11.104 10.064 10.464 9.392C9.84 8.72 8.8 8.384 7.344 8.384H5.16C5.16 8.384 5.16 8.32 5.16 8.192C5.16 8.048 5.16 7.976 5.16 7.976H7.224C8.04 7.976 8.672 7.8 9.12 7.448C9.568 7.08 9.872 6.6 10.032 6.008C10.192 5.4 10.272 4.752 10.272 4.064C10.272 2.88 10.064 1.992 9.648 1.4C9.232 0.791999 8.544 0.487999 7.584 0.487999ZM24.2483 4.256C24.7443 4.256 25.1523 4.36 25.4723 4.568C25.8083 4.776 26.0563 5.04 26.2163 5.36C26.3763 5.68 26.4563 6.016 26.4563 6.368C26.4563 6.896 26.2963 7.336 25.9763 7.688C25.6723 8.04 25.2643 8.216 24.7523 8.216C24.2723 8.216 23.8803 8.088 23.5763 7.832C23.2723 7.576 23.1203 7.224 23.1203 6.776C23.1203 6.376 23.2163 6.04 23.4083 5.768C23.6163 5.496 23.8483 5.28 24.1043 5.12C23.9283 5.024 23.7283 4.992 23.5043 5.024C23.1203 5.056 22.7683 5.192 22.4483 5.432C22.1283 5.672 21.8563 5.968 21.6323 6.32C21.4083 6.672 21.2323 7.048 21.1043 7.448C20.9923 7.848 20.9363 8.232 20.9363 8.6V14.528C20.9363 15.312 21.1363 15.84 21.5363 16.112C21.9363 16.368 22.5203 16.496 23.2883 16.496V17C22.9203 16.984 22.3843 16.968 21.6803 16.952C20.9923 16.92 20.2723 16.904 19.5203 16.904C18.8963 16.904 18.2723 16.92 17.6483 16.952C17.0403 16.968 16.5843 16.984 16.2803 17V16.496C16.8723 16.496 17.2883 16.376 17.5283 16.136C17.7843 15.896 17.9123 15.44 17.9123 14.768V7.208C17.9123 6.488 17.7923 5.96 17.5523 5.624C17.3283 5.272 16.9043 5.096 16.2803 5.096V4.592C16.7923 4.64 17.2883 4.664 17.7683 4.664C18.3603 4.664 18.9203 4.64 19.4483 4.592C19.9923 4.528 20.4883 4.44 20.9363 4.328V6.824C21.1283 6.376 21.3763 5.96 21.6803 5.576C22.0003 5.192 22.3763 4.88 22.8083 4.64C23.2563 4.384 23.7363 4.256 24.2483 4.256ZM30.6319 17.168C29.9439 17.168 29.3599 17.04 28.8799 16.784C28.3999 16.512 28.0399 16.152 27.7999 15.704C27.5599 15.24 27.4399 14.728 27.4399 14.168C27.4399 13.48 27.5999 12.92 27.9199 12.488C28.2399 12.04 28.6479 11.688 29.1439 11.432C29.6559 11.16 30.1919 10.936 30.7519 10.76C31.3119 10.568 31.8399 10.392 32.3359 10.232C32.8319 10.056 33.2399 9.856 33.5599 9.632C33.8799 9.408 34.0399 9.112 34.0399 8.744V6.992C34.0399 6.48 33.9599 6.064 33.7999 5.744C33.6559 5.408 33.4319 5.16 33.1279 5C32.8399 4.824 32.4719 4.736 32.0239 4.736C31.6879 4.736 31.3359 4.784 30.9679 4.88C30.5999 4.976 30.2959 5.16 30.0559 5.432C30.4719 5.544 30.7919 5.752 31.0159 6.056C31.2559 6.36 31.3759 6.728 31.3759 7.16C31.3759 7.656 31.2079 8.048 30.8719 8.336C30.5519 8.608 30.1439 8.744 29.6479 8.744C29.1199 8.744 28.7199 8.576 28.4479 8.24C28.1759 7.904 28.0399 7.512 28.0399 7.064C28.0399 6.616 28.1519 6.248 28.3759 5.96C28.5999 5.656 28.9119 5.384 29.3119 5.144C29.7119 4.872 30.2239 4.656 30.8479 4.496C31.4719 4.336 32.1519 4.256 32.8879 4.256C33.5919 4.256 34.2159 4.336 34.7599 4.496C35.3039 4.64 35.7679 4.904 36.1519 5.288C36.5359 5.656 36.7839 6.112 36.8959 6.656C37.0079 7.2 37.0639 7.864 37.0639 8.648V15.224C37.0639 15.624 37.1119 15.912 37.2079 16.088C37.3039 16.248 37.4559 16.328 37.6639 16.328C37.8239 16.328 37.9759 16.288 38.1199 16.208C38.2639 16.128 38.4239 16.016 38.5999 15.872L38.8639 16.28C38.5119 16.552 38.1439 16.768 37.7599 16.928C37.3759 17.088 36.9119 17.168 36.3679 17.168C35.8079 17.168 35.3599 17.088 35.0239 16.928C34.7039 16.768 34.4639 16.536 34.3039 16.232C34.1599 15.928 34.0799 15.568 34.0639 15.152C33.6799 15.792 33.2079 16.288 32.6479 16.64C32.0879 16.992 31.4159 17.168 30.6319 17.168ZM32.0719 15.824C32.4559 15.824 32.8079 15.72 33.1279 15.512C33.4639 15.304 33.7679 14.992 34.0399 14.576V9.728C33.8799 9.968 33.6479 10.184 33.3439 10.376C33.0559 10.568 32.7439 10.76 32.4079 10.952C32.0719 11.144 31.7519 11.368 31.4479 11.624C31.1599 11.864 30.9119 12.168 30.7039 12.536C30.5119 12.888 30.4159 13.344 30.4159 13.904C30.4159 14.528 30.5679 15.008 30.8719 15.344C31.1759 15.664 31.5759 15.824 32.0719 15.824Z" fill="#101C26"/>
<path d="M54.8657 0.0079999V0.487999C54.5457 0.599999 54.1937 0.855999 53.8097 1.256C53.4257 1.64 53.0817 2.248 52.7777 3.08L47.5217 17.072C47.4257 17.072 47.3217 17.064 47.2097 17.048C47.1137 17.048 47.0097 17.048 46.8977 17.048C46.7857 17.048 46.6737 17.048 46.5617 17.048C46.4657 17.064 46.3697 17.072 46.2737 17.072L40.2497 2.024C40.0097 1.432 39.7457 1.032 39.4577 0.823999C39.1857 0.615999 38.9297 0.503999 38.6897 0.487999V0.0079999C39.1057 0.0239997 39.6097 0.0399995 40.2017 0.0559993C40.8097 0.0719991 41.4017 0.079999 41.9777 0.079999C42.6817 0.079999 43.3377 0.0719991 43.9457 0.0559993C44.5697 0.0399995 45.0657 0.0239997 45.4337 0.0079999V0.487999C44.9057 0.503999 44.4977 0.567999 44.2097 0.68C43.9377 0.776 43.7857 0.967999 43.7537 1.256C43.7217 1.528 43.8097 1.944 44.0177 2.504L48.4337 13.856L47.9777 14.408L51.5777 4.808C51.9777 3.736 52.1777 2.888 52.1777 2.264C52.1777 1.64 52.0017 1.192 51.6497 0.92C51.2977 0.647999 50.7937 0.503999 50.1377 0.487999V0.0079999C50.6657 0.0239997 51.1617 0.0399995 51.6257 0.0559993C52.1057 0.0719991 52.5777 0.079999 53.0417 0.079999C53.4257 0.079999 53.7617 0.0719991 54.0497 0.0559993C54.3537 0.0399995 54.6257 0.0239997 54.8657 0.0079999ZM56.9756 17.168C56.2876 17.168 55.7036 17.04 55.2236 16.784C54.7436 16.512 54.3836 16.152 54.1436 15.704C53.9036 15.24 53.7836 14.728 53.7836 14.168C53.7836 13.48 53.9436 12.92 54.2636 12.488C54.5836 12.04 54.9916 11.688 55.4876 11.432C55.9996 11.16 56.5356 10.936 57.0956 10.76C57.6556 10.568 58.1836 10.392 58.6796 10.232C59.1756 10.056 59.5836 9.856 59.9036 9.632C60.2236 9.408 60.3836 9.112 60.3836 8.744V6.992C60.3836 6.48 60.3036 6.064 60.1436 5.744C59.9996 5.408 59.7756 5.16 59.4716 5C59.1836 4.824 58.8156 4.736 58.3676 4.736C58.0316 4.736 57.6796 4.784 57.3116 4.88C56.9436 4.976 56.6396 5.16 56.3996 5.432C56.8156 5.544 57.1356 5.752 57.3596 6.056C57.5996 6.36 57.7196 6.728 57.7196 7.16C57.7196 7.656 57.5516 8.048 57.2156 8.336C56.8956 8.608 56.4876 8.744 55.9916 8.744C55.4636 8.744 55.0636 8.576 54.7916 8.24C54.5196 7.904 54.3836 7.512 54.3836 7.064C54.3836 6.616 54.4956 6.248 54.7196 5.96C54.9436 5.656 55.2556 5.384 55.6556 5.144C56.0556 4.872 56.5676 4.656 57.1916 4.496C57.8156 4.336 58.4956 4.256 59.2316 4.256C59.9356 4.256 60.5596 4.336 61.1036 4.496C61.6476 4.64 62.1116 4.904 62.4956 5.288C62.8796 5.656 63.1276 6.112 63.2396 6.656C63.3516 7.2 63.4076 7.864 63.4076 8.648V15.224C63.4076 15.624 63.4556 15.912 63.5516 16.088C63.6476 16.248 63.7996 16.328 64.0076 16.328C64.1676 16.328 64.3196 16.288 64.4636 16.208C64.6076 16.128 64.7676 16.016 64.9436 15.872L65.2076 16.28C64.8556 16.552 64.4876 16.768 64.1036 16.928C63.7196 17.088 63.2556 17.168 62.7116 17.168C62.1516 17.168 61.7036 17.088 61.3676 16.928C61.0476 16.768 60.8076 16.536 60.6476 16.232C60.5036 15.928 60.4236 15.568 60.4076 15.152C60.0236 15.792 59.5516 16.288 58.9916 16.64C58.4316 16.992 57.7596 17.168 56.9756 17.168ZM58.4156 15.824C58.7996 15.824 59.1516 15.72 59.4716 15.512C59.8076 15.304 60.1116 14.992 60.3836 14.576V9.728C60.2236 9.968 59.9916 10.184 59.6876 10.376C59.3996 10.568 59.0876 10.76 58.7516 10.952C58.4156 11.144 58.0956 11.368 57.7916 11.624C57.5036 11.864 57.2556 12.168 57.0476 12.536C56.8556 12.888 56.7596 13.344 56.7596 13.904C56.7596 14.528 56.9116 15.008 57.2156 15.344C57.5196 15.664 57.9196 15.824 58.4156 15.824ZM69.2334 17.168C68.5454 17.168 67.9614 17.04 67.4814 16.784C67.0014 16.512 66.6414 16.152 66.4014 15.704C66.1614 15.24 66.0414 14.728 66.0414 14.168C66.0414 13.48 66.2014 12.92 66.5214 12.488C66.8414 12.04 67.2494 11.688 67.7454 11.432C68.2574 11.16 68.7934 10.936 69.3534 10.76C69.9134 10.568 70.4414 10.392 70.9374 10.232C71.4334 10.056 71.8414 9.856 72.1614 9.632C72.4814 9.408 72.6414 9.112 72.6414 8.744V6.992C72.6414 6.48 72.5614 6.064 72.4014 5.744C72.2574 5.408 72.0334 5.16 71.7294 5C71.4414 4.824 71.0734 4.736 70.6254 4.736C70.2894 4.736 69.9374 4.784 69.5694 4.88C69.2014 4.976 68.8974 5.16 68.6574 5.432C69.0734 5.544 69.3934 5.752 69.6174 6.056C69.8574 6.36 69.9774 6.728 69.9774 7.16C69.9774 7.656 69.8094 8.048 69.4734 8.336C69.1534 8.608 68.7454 8.744 68.2494 8.744C67.7214 8.744 67.3214 8.576 67.0494 8.24C66.7774 7.904 66.6414 7.512 66.6414 7.064C66.6414 6.616 66.7534 6.248 66.9774 5.96C67.2014 5.656 67.5134 5.384 67.9134 5.144C68.3134 4.872 68.8254 4.656 69.4494 4.496C70.0734 4.336 70.7534 4.256 71.4894 4.256C72.1934 4.256 72.8174 4.336 73.3614 4.496C73.9054 4.64 74.3694 4.904 74.7534 5.288C75.1374 5.656 75.3854 6.112 75.4974 6.656C75.6094 7.2 75.6654 7.864 75.6654 8.648V15.224C75.6654 15.624 75.7134 15.912 75.8094 16.088C75.9054 16.248 76.0574 16.328 76.2654 16.328C76.4254 16.328 76.5774 16.288 76.7214 16.208C76.8654 16.128 77.0254 16.016 77.2014 15.872L77.4654 16.28C77.1134 16.552 76.7454 16.768 76.3614 16.928C75.9774 17.088 75.5134 17.168 74.9694 17.168C74.4094 17.168 73.9614 17.088 73.6254 16.928C73.3054 16.768 73.0654 16.536 72.9054 16.232C72.7614 15.928 72.6814 15.568 72.6654 15.152C72.2814 15.792 71.8094 16.288 71.2494 16.64C70.6894 16.992 70.0174 17.168 69.2334 17.168ZM70.6734 15.824C71.0574 15.824 71.4094 15.72 71.7294 15.512C72.0654 15.304 72.3694 14.992 72.6414 14.576V9.728C72.4814 9.968 72.2494 10.184 71.9454 10.376C71.6574 10.568 71.3454 10.76 71.0094 10.952C70.6734 11.144 70.3534 11.368 70.0494 11.624C69.7614 11.864 69.5134 12.168 69.3054 12.536C69.1134 12.888 69.0174 13.344 69.0174 13.904C69.0174 14.528 69.1694 15.008 69.4734 15.344C69.7774 15.664 70.1774 15.824 70.6734 15.824Z" fill="#0095A4"/>
</svg>
