<svg width="18" height="18" viewBox="0 0 18 18" fill="none" xmlns="http://www.w3.org/2000/svg">
<g opacity="0.89">
<g clip-path="url(#clip0_446_2015)">
<path d="M12.6845 1.51953H5.57192C3.60783 1.51953 2.01562 3.11174 2.01562 5.07583V12.1884C2.01562 14.1525 3.60783 15.7447 5.57192 15.7447H12.6845C14.6486 15.7447 16.2408 14.1525 16.2408 12.1884V5.07583C16.2408 3.11174 14.6486 1.51953 12.6845 1.51953Z" stroke="white" stroke-width="1.42252" stroke-linecap="round" stroke-linejoin="round"/>
<path d="M11.9718 8.18553C12.0596 8.77748 11.9585 9.38203 11.6829 9.91319C11.4073 10.4444 10.9712 10.8751 10.4366 11.1441C9.90212 11.4132 9.29637 11.5068 8.70555 11.4118C8.11474 11.3167 7.56894 11.0377 7.1458 10.6146C6.72265 10.1915 6.44371 9.64566 6.34864 9.05485C6.25357 8.46403 6.34721 7.85828 6.61625 7.32375C6.8853 6.78923 7.31603 6.35314 7.8472 6.07753C8.37837 5.80192 8.98292 5.70081 9.57486 5.78859C10.1787 5.87813 10.7377 6.15948 11.1693 6.59111C11.6009 7.02273 11.8823 7.58173 11.9718 8.18553Z" stroke="white" stroke-width="1.42252" stroke-linecap="round" stroke-linejoin="round"/>
<path d="M13.0391 4.71875H13.0474" stroke="white" stroke-width="1.42252" stroke-linecap="round" stroke-linejoin="round"/>
</g>
</g>
<defs>
<clipPath id="clip0_446_2015">
<rect width="17.0702" height="17.0702" fill="white" transform="translate(0.589844 0.0976562)"/>
</clipPath>
</defs>
</svg>
