<svg width="19" height="19" viewBox="0 0 19 19" fill="none" xmlns="http://www.w3.org/2000/svg">
<g opacity="0.89">
<path d="M12.3444 6.65234C13.5276 6.65234 14.6624 7.1224 15.4991 7.9591C16.3358 8.7958 16.8059 9.93061 16.8059 11.1139V16.319H13.8315V11.1139C13.8315 10.7195 13.6748 10.3412 13.3959 10.0623C13.117 9.78339 12.7388 9.6267 12.3444 9.6267C11.9499 9.6267 11.5717 9.78339 11.2928 10.0623C11.0139 10.3412 10.8572 10.7195 10.8572 11.1139V16.319H7.88281V11.1139C7.88281 9.93061 8.35287 8.7958 9.18957 7.9591C10.0263 7.1224 11.1611 6.65234 12.3444 6.65234V6.65234Z" stroke="white" stroke-width="1.48718" stroke-linecap="round" stroke-linejoin="round"/>
<path d="M4.90795 7.39844H1.93359V16.3215H4.90795V7.39844Z" stroke="white" stroke-width="1.48718" stroke-linecap="round" stroke-linejoin="round"/>
<path d="M3.42077 5.16577C4.24212 5.16577 4.90795 4.49993 4.90795 3.67859C4.90795 2.85724 4.24212 2.19141 3.42077 2.19141C2.59943 2.19141 1.93359 2.85724 1.93359 3.67859C1.93359 4.49993 2.59943 5.16577 3.42077 5.16577Z" stroke="white" stroke-width="1.48718" stroke-linecap="round" stroke-linejoin="round"/>
</g>
</svg>
