<svg width="18" height="18" viewBox="0 0 18 18" fill="none" xmlns="http://www.w3.org/2000/svg">
<g opacity="0.89">
<g clip-path="url(#clip0_446_2011)">
<path d="M16.7024 2.22981C16.0213 2.71025 15.2672 3.07771 14.469 3.31804C14.0407 2.8255 13.4714 2.4764 12.8382 2.31795C12.2049 2.15951 11.5383 2.19936 10.9285 2.43213C10.3186 2.66489 9.79496 3.07934 9.42834 3.61941C9.06171 4.15948 8.86979 4.79912 8.87855 5.45182V6.16307C7.6286 6.19549 6.39004 5.91827 5.27318 5.35611C4.15631 4.79396 3.1958 3.96431 2.47721 2.94107C2.47721 2.94107 -0.367832 9.34241 6.03351 12.1874C4.56869 13.1818 2.8237 13.6803 1.05469 13.61C7.45603 17.1663 15.2799 13.61 15.2799 5.43048C15.2792 5.23236 15.2602 5.03473 15.223 4.84013C15.9489 4.12424 16.4612 3.22039 16.7024 2.22981V2.22981Z" stroke="white" stroke-width="1.42252" stroke-linecap="round" stroke-linejoin="round"/>
</g>
</g>
<defs>
<clipPath id="clip0_446_2011">
<rect width="17.0702" height="17.0702" fill="white" transform="translate(0.34375 0.0976562)"/>
</clipPath>
</defs>
</svg>
